inDegrees=yes
name=ik_S48_A07_T02
DataType=double
version=3
OpenSimVersion=4.3-2021-08-27-4bc7ad9
endheader
time	pelvis_tilt	pelvis_list	pelvis_rotation	pelvis_tx	pelvis_ty	pelvis_tz	hip_flexion_r	hip_adduction_r	hip_rotation_r	knee_angle_r	knee_angle_r_beta	ankle_angle_r	subtalar_angle_r	mtp_angle_r	hip_flexion_l	hip_adduction_l	hip_rotation_l	knee_angle_l	knee_angle_l_beta	ankle_angle_l	subtalar_angle_l	mtp_angle_l	lumbar_extension	lumbar_bending	lumbar_rotation	arm_flex_r	arm_add_r	arm_rot_r	elbow_flex_r	pro_sup_r	wrist_flex_r	wrist_dev_r	arm_flex_l	arm_add_l	arm_rot_l	elbow_flex_l	pro_sup_l	wrist_flex_l	wrist_dev_l
20.13999999999966	-6.388872932210711	-2.818572062403127	37.30671616921147	0	0.9399999999999999	0	37.42003085478292	-10.72964479284142	-9.944317027841185	51.02391921346972	0.8905353875466422	0	0	0	37.42003085478292	-10.72964479284142	-9.944317027841185	51.02391921346972	0.8905353875466422	0	0	0	-5.253619818306911	-3.339080644557832	4.617913181370431	60.55082114220223	-6.005116378446147	-0.4521908791774359	47.6163496363773	134.1445928134748	0	0	35.3013945667314	-9.822641100225821	10.02596454339262	36.25063488166023	115.004693492048	0	0
20.15999999999966	-6.402194868685613	-2.862072656366857	37.43035141919683	0	0.9399999999999999	0	37.42281504680371	-10.72873562820602	-9.94436181721068	51.02490907250162	0.8905526638458793	0	0	0	37.42281504680371	-10.72873562820602	-9.94436181721068	51.02490907250162	0.8905526638458793	0	0	0	-5.291031022213798	-3.363610216672485	4.614917461649214	60.62491395155403	-6.118928430390921	-0.606375451051792	48.43152416777183	134.2181295103165	0	0	35.40543000498474	-9.800753221180754	10.15871638668713	36.30114856977833	114.8608418991341	0	0
20.17999999999966	-6.39631127446248	-2.879305323839469	37.29754315073638	0	0.9399999999999999	0	37.42579116975729	-10.72775428367116	-9.944410006758376	51.02595666928465	0.8905709478589764	0	0	0	37.42579116975729	-10.72775428367116	-9.944410006758376	51.02595666928465	0.8905709478589764	0	0	0	-5.286313158855187	-3.410933758839422	4.882731293151122	58.64182973554524	-6.901453888122618	-1.548907174267367	51.3177996084378	134.8745796082968	0	0	35.42116810646773	-9.706285509543417	9.837508688710114	36.34060503797421	115.1236944598231	0	0
20.19999999999966	-6.405248146703528	-2.908785097283848	37.11287183553494	0	0.9399999999999999	0	37.42898262668896	-10.72669910757373	-9.944461784140403	51.02707605346519	0.8905904847985218	0	0	0	37.42898262668896	-10.72669910757373	-9.944461784140403	51.02707605346519	0.8905904847985218	0	0	0	-5.300528280088658	-3.463497083847883	5.147869483782411	56.59829428800172	-7.739446745033802	-2.42036105453704	54.16260769212465	135.5735426057935	0	0	35.44495574949801	-9.675991173171532	9.66396456662839	36.43649878104616	115.1928984179793	0	0
20.21999999999966	-6.42232716314121	-2.935830017302813	36.90077590364868	0	0.9399999999999999	0	37.43278977059846	-10.72543796854502	-9.944523639642656	51.02840761648177	0.8906137249573588	0	0	0	37.43278977059846	-10.72543796854502	-9.944523639642656	51.02840761648177	0.8906137249573588	0	0	0	-5.321506762801643	-3.505870491448512	5.399191846279401	54.49804985316945	-8.652906422097264	-3.259560875155329	56.82015072813194	135.9662688727707	0	0	35.43886891210494	-9.667614743292644	9.500617873616374	36.5345536676338	115.2925693449663	0	0
20.23999999999966	-6.461507684994483	-2.972634342623167	36.65793932571241	0	0.9399999999999999	0	37.43681654919986	-10.72410426299479	-9.944589070916427	51.02981474965758	0.8906382840642906	0	0	0	37.43681654919986	-10.72410426299479	-9.944589070916427	51.02981474965758	0.8906382840642906	0	0	0	-5.369241449690991	-3.534328428283276	5.59309394483257	52.38714393498036	-9.543292393673447	-3.931309002256581	59.16077556844213	135.9453274130945	0	0	35.44779427525081	-9.660924229458226	9.234901902424768	36.69870668670658	115.2674069422302	0	0
20.25999999999966	-6.460892176173469	-2.968344200125686	36.18208614017393	0	0.9399999999999999	0	37.44066925138929	-10.72283059008789	-9.944651611349979	51.03116194532721	0.8906617970643944	0	0	0	37.44066925138929	-10.72283059008789	-9.944651611349979	51.03116194532721	0.8906617970643944	0	0	0	-5.357780860723356	-3.584706546015242	6.041569818784014	47.63560353878526	-11.38732283060104	-5.24190894490162	63.83252924196595	135.3193200250138	0	0	35.36210579486676	-9.65279118029202	9.025017492768821	36.81430149656543	115.3818087747575	0	0
20.27999999999966	-6.478540615733559	-2.975937027565968	36.09940360842408	0	0.9399999999999999	0	37.44255054482765	-10.72221923320729	-9.944681813610639	51.03183017806269	0.8906734599257981	0	0	0	37.44255054482765	-10.72221923320729	-9.944681813610639	51.03183017806269	0.8906734599257981	0	0	0	-5.379254191603625	-3.572298728382037	5.986667837903311	47.67756196221963	-11.31266593620546	-5.103365859968862	63.23116811878788	135.55564555801	0	0	35.2813166971107	-9.682238628890783	8.769491888633915	36.92258747685545	115.2973427104111	0	0
20.29999999999966	-6.499313301632439	-3.012586309394963	35.82284984188508	0	0.9399999999999999	0	37.44581363106526	-10.72114199032403	-9.944734748312065	51.0329712372423	0.8906933751654423	0	0	0	37.44581363106526	-10.72114199032403	-9.944734748312065	51.0329712372423	0.8906933751654423	0	0	0	-5.413288598974265	-3.60422254772044	6.132840251861674	45.40887225727403	-12.15001239713457	-5.626564819858356	64.63719253538561	135.5209437578918	0	0	35.26286490495364	-9.743852791261878	8.560335193881256	37.03908854335166	115.3727205873378	0	0
20.31999999999966	-6.518017695390582	-3.017168091717912	35.30853901908595	0	0.9399999999999999	0	37.44921025221254	-10.72002389309429	-9.944789755906816	51.03416113934454	0.8907141428749029	0	0	0	37.44921025221254	-10.72002389309429	-9.944789755906816	51.03416113934454	0.8907141428749029	0	0	0	-5.414171513099665	-3.638337993879085	6.440799591696164	40.51680835870862	-13.43310869061002	-6.49564238059444	69.68718015730734	134.7408304789319	0	0	35.27539125378765	-9.819735747428215	8.388974068140898	37.06859505788223	115.2898238118062	0	0
20.33999999999966	-6.537534584048156	-3.019983007167711	35.00644566817396	0	0.9399999999999999	0	37.45214091585081	-10.71905862835184	-9.944837242533547	51.03518645163862	0.8907320379502957	0	0	0	37.45214091585081	-10.71905862835184	-9.944837242533547	51.03518645163862	0.8907320379502957	0	0	0	-5.430908765517975	-3.634690951148639	6.538933771771311	38.07064492265344	-13.94511678945737	-6.826449920679266	69.6053642949385	135.8215211538941	0	0	35.00263949972882	-9.770252415796595	8.164128485298747	37.36715871544716	115.3121408465086	0	0
20.35999999999965	-6.552218689058803	-3.03844920284656	34.68446427392171	0	0.9399999999999999	0	37.45595832302178	-10.7178011163137	-9.944899113800687	51.0365206776607	0.8907553245873469	0	0	0	37.45595832302178	-10.7178011163137	-9.944899113800687	51.0365206776607	0.8907553245873469	0	0	0	-5.45073655855329	-3.647238343779732	6.62615741914417	35.59670609638412	-14.30628934115793	-7.245640823248008	70.68971617123789	136.2744464124293	0	0	34.98286795659648	-9.855058856909624	8.001492627931391	37.45550755390069	115.3313169211929	0	0
20.37999999999965	-6.55285694565866	-3.01625371463948	34.34022338046424	0	0.9399999999999999	0	37.45943958916642	-10.71665634667956	-9.944955483198118	51.03773828766245	0.8907765758908825	0	0	0	37.45943958916642	-10.71665634667956	-9.944955483198118	51.03773828766245	0.8907765758908825	0	0	0	-5.436972042522311	-3.635199903955337	6.730191545887465	33.14590790426674	-14.65069371823769	-7.81521542037258	71.37461382626377	136.5027597464981	0	0	34.91268736706182	-9.91916906787886	7.765110813190951	37.54313798025387	115.3105439361018	0	0
20.39999999999965	-6.558439381773016	-3.017238078634285	34.058989484733	0	0.9399999999999999	0	37.46304552953761	-10.71547153574731	-9.945013851601441	51.03899928507384	0.8907985844475704	0	0	0	37.46304552953761	-10.71547153574731	-9.945013851601441	51.03899928507384	0.8907985844475704	0	0	0	-5.437636056399183	-3.647122404825575	6.882574895971054	30.78573493138077	-14.91240697127359	-8.672587358760065	71.91424614927152	136.6367392195963	0	0	34.86838262328883	-9.937259632183938	7.620384604308822	37.63821389746417	115.3366446052805	0	0
20.41999999999965	-6.568713499057409	-2.999953664538016	33.7045029917353	0	0.9399999999999999	0	37.46583498361907	-10.7145573775865	-9.945058934454346	51.03997639476349	0.8908156382288079	0	0	0	37.46583498361907	-10.7145573775865	-9.945058934454346	51.03997639476349	0.8908156382288079	0	0	0	-5.432838207312154	-3.63672738096829	6.990288496692846	28.45632661563375	-15.01772087509312	-9.458533669366499	72.30373919470449	136.830455594564	0	0	34.83231265154639	-10.00752831085409	7.392847949137886	37.67838935866989	115.3023731173672	0	0
20.43999999999965	-6.572895680499207	-2.973768503315576	33.35782649113128	0	0.9399999999999999	0	37.46995643688741	-10.71320526009371	-9.945125603181436	51.04141732714045	0.8908407872430846	0	0	0	37.46995643688741	-10.71320526009371	-9.945125603181436	51.04141732714045	0.8908407872430846	0	0	0	-5.418424349475652	-3.619008823938284	7.088791051293481	26.12948892028636	-14.9918181345285	-10.2665226923373	72.7440419526079	137.1459539249504	0	0	34.69965725175877	-10.00913414933923	6.960454705795939	37.76413752671328	115.4700882220507	0	0
